<svg xmlns="http://www.w3.org/2000/svg" width="380" height="320" viewBox="0 0 380 320"><rect width="100%" height="100%" fill="#DDDDDD"/><path fill="#999999" d="m79.945 152.425-3.32-.59q.38-2.65 1.48-4.65 1.1-2 2.74-3.34 1.65-1.34 3.78-2.02 2.12-.67 4.57-.67 2.55 0 4.61.73 2.05.72 3.5 2.01 1.45 1.29 2.23 3.02.78 1.74.78 3.75 0 1.76-.39 3.1-.4 1.34-1.14 2.33-.74 1-1.84 1.68-1.09.69-2.47 1.15 3.32 1.05 4.95 3.19 1.63 2.14 1.63 5.38 0 2.75-1.02 4.87t-2.75 3.56q-1.74 1.44-4.02 2.18-2.28.74-4.83.74-2.78 0-4.85-.64-2.06-.64-3.59-1.89-1.53-1.25-2.6-3.06-1.08-1.81-1.84-4.18l2.78-1.15q1.1-.46 2.05-.24.96.22 1.39 1.03.46.9 1.01 1.76.55.87 1.31 1.55.77.67 1.8 1.09 1.03.42 2.46.42 1.61 0 2.81-.52 1.19-.52 2-1.36.8-.84 1.2-1.88.39-1.03.39-2.08 0-1.32-.28-2.41-.28-1.08-1.17-1.84-.89-.77-2.56-1.2-1.68-.44-4.48-.44v-4.48q2.32-.03 3.85-.44 1.53-.41 2.44-1.13.9-.73 1.26-1.75.35-1.02.35-2.24 0-2.6-1.45-3.96-1.45-1.35-3.87-1.35-1.13 0-2.07.32t-1.7.89q-.75.58-1.26 1.34-.51.77-.76 1.69-.44 1.17-1.14 1.55-.7.38-1.97.18Zm38.3 21.5q1.55 0 2.73-.45 1.17-.45 1.97-1.24t1.21-1.88q.41-1.1.41-2.38 0-3.03-1.68-4.59-1.69-1.55-4.64-1.55-2.96 0-4.64 1.55-1.69 1.56-1.69 4.59 0 1.28.41 2.38.41 1.09 1.21 1.88.81.79 1.98 1.24 1.17.45 2.73.45Zm0-28.03q-1.41 0-2.43.44-1.02.43-1.69 1.16-.68.72-1 1.67-.31.94-.31 1.98 0 1.1.26 2.13.27 1.04.91 1.84t1.68 1.29q1.05.48 2.58.48t2.57-.48q1.05-.49 1.69-1.29.63-.8.9-1.84.27-1.03.27-2.13 0-1.04-.33-1.98-.33-.95-1-1.67-.66-.73-1.68-1.16-1.02-.44-2.42-.44Zm6.22 13.31q3.36 1.1 4.97 3.36 1.61 2.25 1.61 5.52 0 2.44-.93 4.43-.93 1.99-2.62 3.4-1.68 1.4-4.04 2.16-2.36.77-5.21.77-2.86 0-5.22-.77-2.36-.76-4.04-2.16-1.68-1.41-2.61-3.4-.93-1.99-.93-4.43 0-3.27 1.6-5.52 1.61-2.26 4.97-3.36-2.67-1.12-4.01-3.18-1.34-2.07-1.34-4.98 0-2.09.85-3.9.86-1.81 2.39-3.15 1.53-1.34 3.66-2.09 2.13-.75 4.68-.75t4.68.75q2.13.75 3.66 2.09 1.53 1.34 2.38 3.15.85 1.81.85 3.9 0 2.91-1.33 4.98-1.34 2.06-4.02 3.18Zm36.87.79q0 4.82-1.03 8.38-1.03 3.56-2.86 5.88-1.82 2.32-4.31 3.45-2.48 1.14-5.36 1.14-2.89 0-5.35-1.14-2.46-1.13-4.27-3.45-1.81-2.32-2.83-5.88t-1.02-8.38q0-4.84 1.02-8.39 1.02-3.54 2.83-5.86 1.81-2.32 4.27-3.46 2.46-1.13 5.35-1.13 2.88 0 5.36 1.13 2.49 1.14 4.31 3.46 1.83 2.32 2.86 5.86 1.03 3.55 1.03 8.39Zm-6.5 0q0-4-.59-6.63-.58-2.62-1.57-4.18-.98-1.55-2.25-2.18-1.28-.62-2.65-.62-1.36 0-2.62.62-1.26.63-2.23 2.18-.97 1.56-1.54 4.18-.58 2.63-.58 6.63 0 4.01.58 6.63.57 2.63 1.54 4.19.97 1.55 2.23 2.18 1.26.62 2.62.62 1.37 0 2.65-.62 1.27-.63 2.25-2.18.99-1.56 1.57-4.19.59-2.62.59-6.63Zm47 10-3.34 3.29-8.65-8.65-8.72 8.7-3.34-3.29 8.72-8.75-8.31-8.31 3.31-3.31 8.32 8.31 8.26-8.26 3.36 3.31-8.28 8.29 8.67 8.67Zm21.21-17.57-3.31-.59q.38-2.65 1.48-4.65 1.09-2 2.74-3.34 1.64-1.34 3.77-2.02 2.13-.67 4.58-.67 2.55 0 4.6.73 2.05.72 3.51 2.01 1.45 1.29 2.23 3.02.78 1.74.78 3.75 0 1.76-.4 3.1-.39 1.34-1.13 2.33-.74 1-1.84 1.68-1.1.69-2.47 1.15 3.31 1.05 4.94 3.19 1.64 2.14 1.64 5.38 0 2.75-1.02 4.87t-2.76 3.56q-1.73 1.44-4.01 2.18-2.29.74-4.84.74-2.78 0-4.84-.64-2.07-.64-3.6-1.89-1.53-1.25-2.6-3.06t-1.83-4.18l2.78-1.15q1.09-.46 2.05-.24.95.22 1.39 1.03.46.9 1.01 1.76.54.87 1.31 1.55.76.67 1.8 1.09 1.03.42 2.46.42 1.6 0 2.8-.52 1.2-.52 2-1.36.81-.84 1.2-1.88.4-1.03.4-2.08 0-1.32-.28-2.41-.28-1.08-1.18-1.84-.89-.77-2.56-1.2-1.67-.44-4.47-.44v-4.48q2.32-.03 3.85-.44 1.53-.41 2.43-1.13.91-.73 1.26-1.75.36-1.02.36-2.24 0-2.6-1.45-3.96-1.46-1.35-3.88-1.35-1.12 0-2.06.32-.95.32-1.7.89-.75.58-1.26 1.34-.51.77-.77 1.69-.43 1.17-1.13 1.55-.7.38-1.98.18Zm39.07 20.14h9.46q1.02 0 1.62.58.6.57.6 1.52v3.77h-25.3v-2.09q0-.64.27-1.34.27-.7.85-1.26l11.2-11.22q1.4-1.43 2.51-2.73 1.11-1.3 1.85-2.58.74-1.27 1.13-2.58.4-1.32.4-2.77 0-1.33-.38-2.33-.39-1.01-1.09-1.7-.7-.69-1.68-1.03-.98-.35-2.21-.35-1.12 0-2.08.32-.95.32-1.69.89-.74.58-1.25 1.34-.51.77-.77 1.69-.43 1.17-1.12 1.55-.69.38-1.99.18l-3.31-.59q.38-2.65 1.48-4.65 1.09-2 2.74-3.34 1.64-1.34 3.77-2.02 2.13-.67 4.58-.67 2.55 0 4.67.75 2.11.75 3.62 2.13 1.5 1.38 2.34 3.32.84 1.93.84 4.3 0 2.04-.59 3.78-.6 1.73-1.61 3.31-1.01 1.58-2.36 3.06-1.35 1.48-2.83 3.01l-8.31 8.49q1.2-.35 2.38-.54 1.19-.2 2.26-.2Zm42.33-12.57q0 4.82-1.03 8.38-1.04 3.56-2.86 5.88-1.82 2.32-4.31 3.45-2.49 1.14-5.37 1.14t-5.34-1.14q-2.46-1.13-4.27-3.45-1.81-2.32-2.83-5.88t-1.02-8.38q0-4.84 1.02-8.39 1.02-3.54 2.83-5.86 1.81-2.32 4.27-3.46 2.46-1.13 5.34-1.13t5.37 1.13q2.49 1.14 4.31 3.46 1.82 2.32 2.86 5.86 1.03 3.55 1.03 8.39Zm-6.5 0q0-4-.59-6.63-.59-2.62-1.57-4.18-.98-1.55-2.26-2.18-1.27-.62-2.65-.62-1.35 0-2.61.62-1.26.63-2.23 2.18-.97 1.56-1.55 4.18-.57 2.63-.57 6.63 0 4.01.57 6.63.58 2.63 1.55 4.19.97 1.55 2.23 2.18 1.26.62 2.61.62 1.38 0 2.65-.62 1.28-.63 2.26-2.18.98-1.56 1.57-4.19.59-2.62.59-6.63Z"/></svg>