<svg xmlns="http://www.w3.org/2000/svg" viewBox="0 0 24 24" id="treehouse">
  <path fill="#303c42" d="M12 24c-.41 0-.82-.103-1.187-.309l-8.617-4.834A2.328 2.328 0 0 1 1 16.835v-9.67c0-.832.458-1.607 1.196-2.021L10.813.308a2.438 2.438 0 0 1 2.373.001l1.84 1.031a.514.514 0 0 1 .172.159c.671 1.007.174 2.847-1.299 4.801-1.64 2.176-4.006 3.157-6.491 2.691C7.225 9 7 9.225 7 9.5s.225.5.5.5c.237 0 .369-.178.415-.254a.501.501 0 0 1 .429-.242h.008c.665.01 2.397.039 2.795-.357a.5.5 0 0 1 .707.707l-.34.351C10.214 11.557 8.725 13 7.5 13c-.275 0-.5.225-.5.5s.225.5.5.5c.257 0 .42-.194.468-.387a.498.498 0 0 1 .228-.31c1.278-.77 3.533-2.224 3.533-2.224a.5.5 0 0 1 .753.553c-.046.169-1.152 4.155-1.891 5.392a.505.505 0 0 1-.148.157.998.998 0 0 0-.443.82 1 1 0 0 0 2 0 .978.978 0 0 0-.203-.596.497.497 0 0 1-.064-.494c.11-.266.242-.629.391-1.035C13.005 13.464 13.604 12 14.5 12c.681 0 1.273.596 1.763 1.772a.502.502 0 0 1-.076.51.742.742 0 0 0 .033.999.77.77 0 0 0 1.061 0 .744.744 0 0 0 0-1.06C16.349 13.288 15 11.249 15 10c0-1.114.585-2.502 1.606-3.808l.166-.215c.7-.91 1.57-2.047 3.15-1.846a.504.504 0 0 1 .184.06l1.696.952.001.001A2.326 2.326 0 0 1 23 7.165v9.671c0 .832-.458 1.607-1.196 2.021l-8.617 4.836A2.445 2.445 0 0 1 12 24z"></path>
  <path fill="#aed581" d="M12 .999c-.241 0-.481.061-.696.181L2.687 6.016A1.326 1.326 0 0 0 2 7.165v9.671c0 .471.263.911.687 1.149l8.617 4.834c.43.242.963.241 1.393.001l8.617-4.836c.423-.237.686-.678.686-1.149v-9.67c0-.471-.263-.911-.687-1.149l-1.605-.901c-.965-.072-1.533.68-2.144 1.472l-.171.221C16.521 7.925 16 9.118 16 10c0 .821 1.093 2.618 1.987 3.513.331.33.513.77.513 1.237s-.182.907-.513 1.237a1.753 1.753 0 0 1-2.475 0 1.73 1.73 0 0 1-.28-2.074c-.313-.665-.602-.913-.732-.913-.337.208-1.108 2.318-1.438 3.218-.112.308-.216.591-.309.829.163.292.247.617.247.954 0 1.103-.897 2-2 2s-2-.898-2-2c0-.614.289-1.193.78-1.572.402-.735.97-2.47 1.368-3.789a145.8 145.8 0 0 1-2.278 1.426A1.484 1.484 0 0 1 7.5 15c-.827 0-1.5-.673-1.5-1.5S6.673 12 7.5 12c.602 0 1.549-.777 2.324-1.516-.394.025-.811.027-1.233.023A1.46 1.46 0 0 1 7.5 11C6.673 11 6 10.327 6 9.5S6.673 8 7.5 8c1.325.239 3.681.247 5.601-2.301 1.348-1.789 1.526-3.058 1.313-3.555l-1.717-.963A1.425 1.425 0 0 0 12 .999z"></path>
  <path fill="#fff" d="M2.5 17.335V7.664c0-.471.263-.911.687-1.149l8.617-4.836a1.428 1.428 0 0 1 1.393.001l1.279.717a.976.976 0 0 0-.061-.254l-1.717-.963a1.441 1.441 0 0 0-1.394 0L2.687 6.016A1.326 1.326 0 0 0 2 7.165v9.671c0 .466.259.901.675 1.141a1.297 1.297 0 0 1-.175-.642z" opacity=".2"></path>
  <linearGradient id="a" x1="9.771" x2="20.936" y1="7.27" y2="18.435" gradientUnits="userSpaceOnUse">
    <stop offset="0" stop-opacity=".1"></stop>
    <stop offset="1" stop-opacity="0"></stop>
  </linearGradient>
  <path fill="url(#a)" d="M6.326 14.423zm3.498-3.939c-.394.025-.811.027-1.233.023A1.46 1.46 0 0 1 7.5 11c-.403 0-.768-.162-1.038-.421l1.357 1.357c.587-.193 1.355-.833 2.005-1.452zm9.884-5.369c-.965-.072-1.533.68-2.144 1.472l-.171.221C16.521 7.925 16 9.118 16 10c0 .821 1.093 2.618 1.987 3.513.331.33.513.77.513 1.237s-.182.907-.513 1.237a1.753 1.753 0 0 1-2.475 0 1.73 1.73 0 0 1-.28-2.074c-.313-.665-.602-.913-.732-.913-.337.208-1.108 2.318-1.438 3.218-.112.308-.216.591-.309.829.163.292.247.617.247.954 0 1.103-.897 2-2 2-.259 0-.504-.053-.732-.143v.002l2.77 2.77 8.276-4.645c.423-.238.686-.679.686-1.15V7.407l-2.292-2.292zM8.87 14.065c-.227.56-.764.935-1.37.935-.35 0-.667-.125-.923-.326l2.582 2.582c.132-.32.338-.609.621-.827.402-.735.97-2.47 1.368-3.789-.701.445-1.596 1.011-2.278 1.425z"></path>
  <linearGradient id="b" x1=".919" x2="23.081" y1="6.833" y2="17.167" gradientUnits="userSpaceOnUse">
    <stop offset="0" stop-color="#fff" stop-opacity=".2"></stop>
    <stop offset="1" stop-color="#fff" stop-opacity="0"></stop>
  </linearGradient>
  <path fill="url(#b)" d="M12 24c-.41 0-.82-.103-1.187-.309l-8.617-4.834A2.328 2.328 0 0 1 1 16.835v-9.67c0-.832.458-1.607 1.196-2.021L10.813.308a2.438 2.438 0 0 1 2.373.001l1.84 1.031a.514.514 0 0 1 .172.159c.671 1.007.174 2.847-1.299 4.801-1.64 2.176-4.006 3.157-6.491 2.691C7.225 9 7 9.225 7 9.5s.225.5.5.5c.237 0 .369-.178.415-.254a.501.501 0 0 1 .429-.242h.008c.665.01 2.397.039 2.795-.357a.5.5 0 0 1 .707.707l-.34.351C10.214 11.557 8.725 13 7.5 13c-.275 0-.5.225-.5.5s.225.5.5.5c.257 0 .42-.194.468-.387a.498.498 0 0 1 .228-.31c1.278-.77 3.533-2.224 3.533-2.224a.5.5 0 0 1 .753.553c-.046.169-1.152 4.155-1.891 5.392a.505.505 0 0 1-.148.157.998.998 0 0 0-.443.82 1 1 0 0 0 2 0 .978.978 0 0 0-.203-.596.497.497 0 0 1-.064-.494c.11-.266.242-.629.391-1.035C13.005 13.464 13.604 12 14.5 12c.681 0 1.273.596 1.763 1.772a.502.502 0 0 1-.076.51.742.742 0 0 0 .033.999.77.77 0 0 0 1.061 0 .744.744 0 0 0 0-1.06C16.349 13.288 15 11.249 15 10c0-1.114.585-2.502 1.606-3.808l.166-.215c.7-.91 1.57-2.047 3.15-1.846a.504.504 0 0 1 .184.06l1.696.952.001.001A2.326 2.326 0 0 1 23 7.165v9.671c0 .832-.458 1.607-1.196 2.021l-8.617 4.836A2.445 2.445 0 0 1 12 24z"></path>
</svg>
